<svg width="251" height="218" viewBox="0 0 251 218" fill="none" xmlns="http://www.w3.org/2000/svg">
<path d="M149.974 135.202C135.716 139.113 132.347 138.021 129.807 141.851C129.516 142.292 128.024 144.539 128.327 147.42C128.562 149.717 129.845 151.493 130.644 152.269C135.524 157.006 148.965 151.213 156.663 144.868C158.342 143.484 162.845 139.778 161.934 137.145C161.563 136.065 160.411 135.531 159.581 135.159C155.92 133.52 152.123 134.606 149.974 135.196V135.202Z" fill="#00448C"/>
<path d="M104.963 37.8308H101.928V57.7907H104.963V37.8308Z" fill="#898989"/>
<path d="M113.925 55.6984H92.9715C91.4253 55.6984 90.1719 56.9547 90.1719 58.5045V66.0105C90.1719 67.5603 91.4253 68.8167 92.9715 68.8167H113.925C115.471 68.8167 116.724 67.5603 116.724 66.0105V58.5045C116.724 56.9547 115.471 55.6984 113.925 55.6984Z" fill="url(#paint0_linear_789_79698)"/>
<path d="M94.9101 64.9752H111.98C133.491 64.9752 150.951 82.4766 150.951 104.038V115.443C150.951 127.562 141.134 137.396 129.05 137.396H77.8464C65.7563 137.396 55.9454 127.556 55.9454 115.443V104.038C55.9454 82.4766 73.4055 64.9752 94.9163 64.9752H94.9101Z" fill="url(#paint1_linear_789_79698)"/>
<path d="M136.005 110.363C134.76 110.978 133.367 111.3 131.955 111.3H74.9413C73.5229 111.3 72.1293 110.978 70.8906 110.363C67.8371 108.848 66.1152 105.794 66.5426 102.658L66.5735 102.429C68.0353 91.8123 77.6293 83.6483 89.385 83.0399C94.3586 82.7791 99.5799 82.6488 105.03 82.6798C109.298 82.7046 113.423 82.8288 117.393 83.0337C129.198 83.6421 138.86 91.7751 140.328 102.429C140.341 102.503 140.347 102.584 140.359 102.658C140.793 105.794 139.065 108.848 136.011 110.363H136.005Z" fill="#005DC9"/>
<path d="M94.672 98.5183C94.672 101 92.654 103.018 90.172 103.018C87.69 103.018 85.672 101 85.672 98.5183C85.672 96.0364 87.69 94.0183 90.172 94.0183C92.654 94.0183 94.672 96.0364 94.672 98.5183Z" fill="white"/>
<path d="M121.224 98.5183C121.224 101 119.206 103.018 116.724 103.018C114.243 103.018 112.224 101 112.224 98.5183C112.224 96.0364 114.243 94.0183 116.724 94.0183C119.206 94.0183 121.224 96.0364 121.224 98.5183Z" fill="white"/>
<path d="M107.335 36.5021C107.335 38.6564 105.594 40.401 103.445 40.401C101.296 40.401 99.5555 38.6564 99.5555 36.5021C99.5555 34.3478 101.296 32.6033 103.445 32.6033C105.594 32.6033 107.335 34.3478 107.335 36.5021Z" fill="url(#paint2_linear_789_79698)"/>
<path d="M137.498 150.986C137.498 151.117 137.498 151.241 137.498 151.365C137.455 152.563 137.176 153.463 137.04 153.867C133.119 165.868 130.772 172.2 127.477 177.322C126.907 178.204 126.312 179.054 125.668 179.886C124.826 180.998 123.903 182.084 122.881 183.201C120.608 185.685 117.164 186.809 116.055 187.193C111.998 188.628 108.412 188.367 106.034 188.392H105.619C103.228 188.367 99.6482 188.634 95.5975 187.193C94.4888 186.809 91.0389 185.685 88.772 183.201C82.5163 176.378 80.107 170.704 74.6131 153.867C74.4831 153.482 74.2229 152.644 74.161 151.52C74.1424 151.197 74.1362 150.868 74.161 150.545C74.2787 148.534 75.0963 146.56 76.5394 144.759C79.0169 141.667 82.8384 139.973 86.79 139.96L105.842 139.879L124.547 139.805C128.585 139.786 132.5 141.487 135.064 144.616C136.303 146.131 137.095 147.77 137.387 149.459C137.424 149.701 137.461 149.943 137.486 150.185C137.51 150.452 137.523 150.719 137.523 150.992L137.498 150.986Z" fill="url(#paint3_linear_789_79698)"/>
<path d="M84.7505 164.199C85.0292 149.386 87.0298 146.456 84.0816 142.93C83.7409 142.526 82.0129 140.459 79.17 139.931C76.903 139.509 74.8467 140.235 73.8743 140.794C67.9593 144.153 69.7183 158.711 73.608 167.9C74.4565 169.905 76.7358 175.281 79.5106 175.151C80.6503 175.101 81.4864 174.139 82.0748 173.45C84.6824 170.395 84.7071 166.434 84.7505 164.199Z" fill="#005DC9"/>
<path d="M66.9464 47.8367C64.3951 50.0988 62.9154 57.0614 61.8493 60.8969C60.7838 57.0614 59.3042 50.0988 56.7535 47.8367C54.055 45.4456 50.4023 44.4955 45.8417 43.1023C52.3164 42.8124 55.3141 40.6866 55.3141 40.6866C60.7106 38.0779 61.8493 28.0764 61.8493 28.0764C61.8493 28.0764 62.9888 38.0779 68.3845 40.6866C68.3845 40.6866 71.3823 42.8124 77.8577 43.1023C73.2972 44.4955 69.6436 45.4456 66.9464 47.8367Z" fill="url(#paint4_linear_789_79698)"/>
<path d="M75.4492 30.7045C74.886 31.2208 74.5594 32.81 74.3241 33.6854C74.0889 32.81 73.7623 31.2208 73.1993 30.7045C72.6036 30.1588 71.7973 29.9419 70.7906 29.6239C72.2198 29.5577 72.8816 29.0725 72.8816 29.0725C74.0727 28.4771 74.3241 26.1943 74.3241 26.1943C74.3241 26.1943 74.5756 28.4771 75.7666 29.0725C75.7666 29.0725 76.4284 29.5577 77.8577 29.6239C76.851 29.9419 76.0446 30.1588 75.4492 30.7045Z" fill="url(#paint5_linear_789_79698)"/>
<path d="M33.96 56.7205C32.4984 58.029 31.6508 62.0563 31.04 64.2749C30.4297 62.0563 29.582 58.029 28.1209 56.7205C26.5749 55.3374 24.4825 54.7878 21.8698 53.982C25.5789 53.8143 27.2963 52.5847 27.2963 52.5847C30.3877 51.0757 31.04 45.2905 31.04 45.2905C31.04 45.2905 31.6928 51.0757 34.7838 52.5847C34.7838 52.5847 36.5012 53.8143 40.2107 53.982C37.5981 54.7878 35.5051 55.3374 33.96 56.7205Z" fill="url(#paint6_linear_789_79698)"/>
<path d="M42.0548 67.0995C41.1317 67.92 40.5963 70.4457 40.2106 71.837C39.8251 70.4457 39.2898 67.92 38.3669 67.0995C37.3906 66.2321 36.069 65.8875 34.4189 65.3821C36.7615 65.2769 37.8461 64.5058 37.8461 64.5058C39.7986 63.5595 40.2106 59.9315 40.2106 59.9315C40.2106 59.9315 40.6229 63.5595 42.5751 64.5058C42.5751 64.5058 43.6598 65.2769 46.0026 65.3821C44.3526 65.8875 43.0307 66.2321 42.0548 67.0995Z" fill="url(#paint7_linear_789_79698)"/>
<path d="M38.9793 38.3554C38.428 38.8322 38.1083 40.2998 37.8779 41.1082C37.6477 40.2998 37.328 38.8322 36.7768 38.3554C36.1937 37.8513 35.4044 37.6511 34.419 37.3574C35.818 37.2963 36.4658 36.8482 36.4658 36.8482C37.6318 36.2983 37.8779 34.1902 37.8779 34.1902C37.8779 34.1902 38.1241 36.2983 39.29 36.8482C39.29 36.8482 39.9378 37.2963 41.337 37.3574C40.3516 37.6511 39.5621 37.8513 38.9793 38.3554Z" fill="url(#paint8_linear_789_79698)"/>
<path fill-rule="evenodd" clip-rule="evenodd" d="M226.135 49.6982H191.555C178.038 49.6982 167.079 60.6751 167.079 74.2158C167.079 82.2411 170.929 89.3659 176.879 93.8385C176.286 98.0923 174.553 106.757 170.081 109.294C170.081 109.294 189.343 105.961 194.082 98.7334L226.135 98.7334C239.652 98.7334 250.611 87.7565 250.611 74.2158C250.611 60.6751 239.652 49.6982 226.135 49.6982Z" fill="#005DC9"/>
<path d="M179.037 67.4163H181.63V72.4172H184.873V67.4163H187.466V80.5383H184.873V74.7024H181.63V80.5383H179.037V67.4163Z" fill="white"/>
<path d="M198.364 80.0549C197.766 80.301 197.157 80.4856 196.536 80.6086C195.915 80.7317 195.259 80.7932 194.567 80.7932C192.921 80.7932 191.661 80.3538 190.788 79.4749C189.921 78.5901 189.487 77.3186 189.487 75.6604C189.487 74.0549 189.906 72.7864 190.744 71.8547C191.582 70.9231 192.724 70.4573 194.172 70.4573C195.631 70.4573 196.762 70.8909 197.564 71.7581C198.373 72.6194 198.777 73.8352 198.777 75.4055V76.4514H192.106C192.112 77.2249 192.341 77.802 192.792 78.1829C193.243 78.5637 193.917 78.7542 194.813 78.7542C195.405 78.7542 195.988 78.6692 196.562 78.4993C197.137 78.3293 197.737 78.0598 198.364 77.6907V80.0549ZM196.184 74.5178C196.173 73.8381 195.997 73.3254 195.657 72.9797C195.323 72.6282 194.828 72.4524 194.172 72.4524C193.58 72.4524 193.108 72.634 192.757 72.9973C192.405 73.3547 192.197 73.8645 192.133 74.5266L196.184 74.5178Z" fill="white"/>
<path d="M202.926 76.4338V68.8401H200.315V66.8625H205.501V76.4338C205.501 77.2073 205.621 77.7551 205.861 78.0774C206.101 78.3997 206.509 78.5608 207.083 78.5608H209.14V80.5383H206.362C205.138 80.5383 204.259 80.2219 203.725 79.5891C203.192 78.9563 202.926 77.9045 202.926 76.4338Z" fill="white"/>
<path d="M213.771 76.4338V68.8401H211.161V66.8625H216.347V76.4338C216.347 77.2073 216.467 77.7551 216.707 78.0774C216.947 78.3997 217.354 78.5608 217.929 78.5608H219.985V80.5383H217.208C215.983 80.5383 215.104 80.2219 214.571 79.5891C214.038 78.9563 213.771 77.9045 213.771 76.4338Z" fill="white"/>
<path d="M226.63 72.5491C226.015 72.5491 225.531 72.8215 225.18 73.3665C224.828 73.9055 224.652 74.6584 224.652 75.6252C224.652 76.592 224.828 77.3479 225.18 77.8928C225.531 78.4319 226.015 78.7014 226.63 78.7014C227.251 78.7014 227.737 78.4319 228.089 77.8928C228.44 77.3479 228.616 76.592 228.616 75.6252C228.616 74.6584 228.44 73.9055 228.089 73.3665C227.737 72.8215 227.251 72.5491 226.63 72.5491ZM222.077 75.6252C222.077 74.0374 222.487 72.7805 223.307 71.8547C224.134 70.9231 225.241 70.4573 226.63 70.4573C228.024 70.4573 229.132 70.9231 229.952 71.8547C230.778 72.7805 231.191 74.0374 231.191 75.6252C231.191 77.2131 230.778 78.4729 229.952 79.4045C229.132 80.3303 228.024 80.7932 226.63 80.7932C225.241 80.7932 224.134 80.3303 223.307 79.4045C222.487 78.4729 222.077 77.2131 222.077 75.6252Z" fill="white"/>
<path d="M236.307 78.051H238.653V80.5383H236.307V78.051ZM236.307 67.4163H238.653V73.1731L238.363 76.3108H236.614L236.307 73.1731V67.4163Z" fill="white"/>
<defs>
<linearGradient id="paint0_linear_789_79698" x1="90.1719" y1="62.2575" x2="116.724" y2="62.2575" gradientUnits="userSpaceOnUse">
<stop stop-color="#005DC9"/>
<stop offset="1" stop-color="#00448C"/>
</linearGradient>
<linearGradient id="paint1_linear_789_79698" x1="103.448" y1="137.396" x2="103.448" y2="64.9752" gradientUnits="userSpaceOnUse">
<stop stop-color="#C6C6C7"/>
<stop offset="1" stop-color="#F8F8F8"/>
</linearGradient>
<linearGradient id="paint2_linear_789_79698" x1="99.5555" y1="36.5021" x2="107.335" y2="36.5021" gradientUnits="userSpaceOnUse">
<stop stop-color="#005DC9"/>
<stop offset="1" stop-color="#00448C"/>
</linearGradient>
<linearGradient id="paint3_linear_789_79698" x1="105.834" y1="188.397" x2="105.834" y2="139.805" gradientUnits="userSpaceOnUse">
<stop stop-color="#C6C6C7"/>
<stop offset="1" stop-color="#F8F8F8"/>
</linearGradient>
<linearGradient id="paint4_linear_789_79698" x1="77.8577" y1="44.4866" x2="45.8417" y2="44.4866" gradientUnits="userSpaceOnUse">
<stop stop-color="#FFE58F"/>
<stop offset="0.0001" stop-color="#FFE58F"/>
<stop offset="1" stop-color="#FFBA75"/>
</linearGradient>
<linearGradient id="paint5_linear_789_79698" x1="77.8577" y1="29.9399" x2="70.7906" y2="29.9399" gradientUnits="userSpaceOnUse">
<stop stop-color="#FFE58F"/>
<stop offset="0.0001" stop-color="#FFE58F"/>
<stop offset="1" stop-color="#FFBA75"/>
</linearGradient>
<linearGradient id="paint6_linear_789_79698" x1="40.2107" y1="54.7827" x2="21.8698" y2="54.7827" gradientUnits="userSpaceOnUse">
<stop stop-color="#FFE58F"/>
<stop offset="0.0001" stop-color="#FFE58F"/>
<stop offset="1" stop-color="#FFBA75"/>
</linearGradient>
<linearGradient id="paint7_linear_789_79698" x1="46.0026" y1="65.8842" x2="34.4189" y2="65.8842" gradientUnits="userSpaceOnUse">
<stop stop-color="#FFE58F"/>
<stop offset="0.0001" stop-color="#FFE58F"/>
<stop offset="1" stop-color="#FFBA75"/>
</linearGradient>
<linearGradient id="paint8_linear_789_79698" x1="41.337" y1="37.6492" x2="34.419" y2="37.6492" gradientUnits="userSpaceOnUse">
<stop stop-color="#FFE58F"/>
<stop offset="0.0001" stop-color="#FFE58F"/>
<stop offset="1" stop-color="#FFBA75"/>
</linearGradient>
</defs>
</svg>
